<svg xmlns="http://www.w3.org/2000/svg" xml:space="preserve" width="870.3988" height="75.863731" viewBox="0 0 870.39882 75.863733"><defs><clipPath id="a" clipPathUnits="userSpaceOnUse"><path d="M0 194.991h836.958V0H0Z"/></clipPath></defs><path d="m0 0 .537-.145.541-.115.549-.097.549-.079.556-.059.567-.039.566-.026.571-.007.388.003.385.017.389.023.377.033.377.039.38.051.375.058.375.069.37.074.367.082.369.091.365.101.358.104.367.116.355.121.344.129.352.135.345.148.346.151.338.161.123.06.601-.349.627-.315.651-.271.666-.227.679-.188.688-.143.705-.106.709-.063.744-.022.76.032.781.096.752.161.723.217.699.273.168.086.885-.212.814-.061h6.923l.535.02.615.073.616.12.586.172.572.213.549.267.517.307.481.346.441.375.178.177.053-.2.084-.302.088-.3.095-.302.104-.294.107-.296.113-.293.12-.29.127-.284.132-.286.141-.28.144-.28.157-.278.16-.279.166-.267.174-.269.179-.263.186-.261.199-.26.225-.283.236-.276.242-.271.248-.258.26-.257.268-.248.273-.241.277-.23.286-.219.289-.211.304-.206.301-.195.315-.186.314-.176.322-.169.323-.157.326-.144.336-.141.34-.129.339-.114.342-.11.35-.1.353-.086.352-.079.353-.07.356-.06.357-.049.358-.043.365-.03.359-.023.36-.012.404-.004.631.016.664.063.65.092.641.13.623.163.611.194.592.225.582.254.559.278.547.302.529.332.508.348.49.374.471.394.455.414.433.433.416.455.395.47.377.488.347.509.333.519.312.541.283.551.26.571.232.588.209.6.176.612.154.625.116.635.088.649.054.659.018.712-.039.807-.121.836-.201.815-.278.792-.355.756-.428.713-.5.668-.557.611-.613.554-.67.489-.713.422-.754.35-.795.275-.814.197-.832.123-.824.037.707 2.691.07.288.063.268.066.274.064.281.067.285.062.292.061.291.062.306.057.311.057.316.052.324.045.327.043.343.033.346.024.36.016.363.007.41-.019.61-.049.603-.066.592-.104.582-.123.581-.152.565-.176.558-.207.551-.227.537-.254.524-.277.505-.303.496-.328.477-.347.461-.37.441-.398.423-.414.408-.436.376-.451.358-.474.338-.489.314-.506.285-.521.261-.535.238-.545.212-.563.182-.568.153-.58.127-.588.101-.59.07-.601.044-.578.014-.25-.003-.231-.01-.23-.011-.247-.017-.255-.02-.252-.029-.272-.032-.271-.043-.28-.045-.287-.053-.293-.06-.302-.073-.305-.074-.305-.084-.316-.097-.324-.104-.33-.113-.329-.123-.337-.129-.34-.143-.004-.003-.156.076-.627.227-.616.144-.586.078-.443.02-.363.005h-.135l-.154.003H32.585l-.223-.003-.242-.003-.246-.003-.254-.005-.266-.009-.275-.008-.287-.011-.291-.013-.293-.017-.307-.019-.308-.021-.312-.027-.32-.03-.32-.034-.325-.037-.334-.043-.324-.046-.336-.057-.342-.061-.337-.066-.344-.078-.348-.087-.353-.096-.356-.109-.365-.126-.4-.156-.454-.209-.474-.261-.442-.292-.416-.322-.386-.351-.262-.269-.139.137-.564.481-.584.435-.596.385-.603.344-.608.299-.607.262-.608.226-.595.194-.6.168-.59.142-.58.12-.576.097-.564.082-.553.063-.545.051-.533.038-.518.023-.506.021-.49.011-.498.003-.553-.01-.576-.025-.568-.039-.573-.059-.57-.072-.566-.087-.567-.109-.558-.119-.561-.138-.555-.161-.546-.175-.549-.189-.541-.218-.53-.234-.525-.255-.525-.279-.512-.304-.502-.326-.49-.358-.479-.386-.467-.421-.441-.452-.424-.482-.14-.182-.428.522-.464.508-.494.474-.509.441-.526.403-.534.368-.549.34-.554.308-.563.278-.565.248-.567.22-.572.194-.571.172-.571.147-.573.124-.564.104-.569.084-.563.061-.559.048-.552.023-.579.013-.997-.031-1.003-.08-.983-.139-.963-.19-.939-.245-.916-.294-.884-.339-.859-.384-.83-.433-.123-.071-.014.519-.08.939-.126.922-.181.898-.234.876-.278.846-.331.822-.371.792-.416.757-.456.723-.492.688-.527.649-.557.613-.581.575-.608.538-.627.499-.648.464-.663.429-.679.396-.692.359-.7.327-.715.296-.719.26-.727.239-.727.204-.738.173-.738.147-.736.122-.743.093-.746.066-.74.041-.734.013-1.573-.028-4.328-.015H-44.931l-.069.004-.107.001-.111.001-.114.002-.125.006-.14.001-.167.003-.196.005-.21.007-.237.005-.259.005-.61.011-.351.01-.382.008-.415.009-.449.01-.483.013-.523.008-.559.016-.603.015-.641.011-.753.017-.739-.008-.731-.013-.755-.032-.783-.047-.798-.062-.82-.081-.836-.102-.851-.122-.859-.146-.872-.175-.877-.208-.882-.236-.885-.267-.886-.306-.885-.352-.879-.391-.869-.441-.858-.497-.841-.546-.822-.608-.792-.673-.756-.735-.711-.806-.668-.871-.599-.933-.533-.998-.462-1.057-.382-1.108-.299-1.157-.214-1.198-.128-1.236-.04-1.258.019-.676.048-.655.081-.643.115-.634.141-.625.168-.612.194-.598.222-.585.249-.577.27-.555.291-.542.315-.526.342-.512.358-.496.375-.482.4-.459.42-.443.438-.424.459-.406.477-.385.496-.364.518-.339.534-.318.551-.289.573-.263.586-.237.607-.205.626-.172.633-.135.649-.098.662-.066.648-.018.47.006.45.028.444.045.439.055.445.075.442.089.441.107.435.118.436.139.436.153.436.17.429.186.429.205.161.083-1.188-5.516-.495-.004-.692-.047-.841-.171-.798-.282-.724-.378-.621-.44-.516-.462-.418-.475-.337-.46-.281-.475-.233-.479-.182-.478-.147-.477-.105-.471-.07-.458-.041-.46-.016-.442.011-.412.033-.397.051-.395.069-.405.096-.413.113-.42.156-.439.196-.462.253-.489.324-.51.42-.526.541-.531.691-.51.842-.423.961-.282.896-.085 2.975.131 5.161.172 9.33-.292.805.015.782.052.777.082.773.117.766.148.759.177.752.207.745.235.732.267.727.294.711.319.697.356.689.373.671.412.656.432.637.468.618.488.6.527.238.228.186-.256.487-.578.516-.558.559-.537.594-.504.632-.479.668-.451.705-.41.734-.371.773-.332.793-.29.824-.248.846-.202.876-.158.891-.113.913-.066.932-.022.587.013.577.039.589.06.589.083.595.102.598.125.607.145.603.163.612.183.612.206.615.225.615.246.616.271.611.293.61.316.602.343.599.368.589.396.088.066.173-.196.407-.419.433-.386.45-.362.469-.329.487-.303.498-.271.506-.242.519-.217.526-.188z" style="fill:#7c51a1;fill-opacity:1;fill-rule:evenodd;stroke:none" transform="matrix(1.33333 0 0 -1.33333 415.723 65.352)"/><path d="m0 0-.416-.509-.404-.524-.391-.547-.373-.57-.355-.592-.334-.611-.309-.637-.287-.653-.262-.68-.23-.7-.2-.717-.166-.738-.13-.754L-3.951-9l-.063-.784-.017-.806.025-.9.08-.9.125-.881.178-.862.223-.848.269-.82.309-.796.351-.769.387-.748.426-.716.457-.685.484-.657.52-.632.541-.597.566-.569.592-.536.609-.512.633-.477.649-.447.669-.415.676-.388.699-.356.711-.323.723-.293.731-.262.746-.228.756-.196.759-.164.77-.128.773-.093.782-.057.751-.016.43.002.393.011.398.02.393.023.396.035.397.042.39.043.395.055.385.062.392.068.385.075.389.08.386.09.379.098.387.102.377.108.379.117.375.121.375.128.375.14.373.14.363.148.367.155.366.163.295.136.121-.06.295-.146.3-.143.299-.132.301-.132.305-.125.31-.116.301-.111.305-.102.306-.102.317-.092.308-.088.313-.081.32-.075.316-.067.315-.062.316-.054.319-.045.324-.042.322-.032.32-.024.327-.02.324-.01.359-.006.5.014.528.046.515.067.504.085.5.107.498.125.496.143.492.158.489.172.488.189.488.206.485.222.48.237.479.255.476.268.471.291.463.302.459.327.451.344.443.37.432.388.424.416.406.446.395.478.373.514.351.55.321.597.285.634.242.68.182.727.119.761.039.786-.043.813-.117.795-.202.774-.267.736-.34.704-.4.657-.457.617-.514.566-.567.519-.613.462-.66.4-.703.342-.74.271-.768.2-.762.118.102.352.109.419.096.418.084.403.07.401.061.385.049.381.037.376.025.365.016.354.004.378-.02.759-.068.775-.11.766-.164.759-.222.75-.28.735-.347.724-.422.708-.51.679-.59.635-.679.576-.764.502-.842.399-.881.295-.918.173-.59.037.194.547.191.665.155.688.115.703.072.718.023.721-.015.622-.053.6-.082.596-.109.583-.145.568-.176.557-.207.54-.23.528-.262.504-.279.483-.307.462-.326.446-.346.423-.359.397-.379.381-.396.353-.411.334-.416.31-.425.289-.442.269-.449.244-.455.221-.461.205-.477.184-.478.162-.483.14-.488.116-.492.103-.498.075-.498.057-.508.031-.543.016-.879-.036-.896-.106-.879-.173-.846-.238-.814-.297-.78-.351-.744-.399-.695-.446-.664-.481-.617-.515-.582-.543-.541-.566-.51-.586-.469-.606-.443-.619-.406-.634-.379-.645-.346-.659-.326-.662-.295-.672-.274-.678-.248-.683-.222-.685-.196-.688-.177-.691-.153-.691-.125-.692-.109-.689-.084-.687-.063-.684-.005-.123-.01-.004-.459-.331-.461-.343-.463-.352-.465-.368-.459-.387-.459-.4-.451-.416-.449-.432L.859.951.42.484Z" style="fill:#7C51A1;fill-opacity:1;fill-rule:evenodd;stroke:none" transform="matrix(1.33333 0 0 -1.33333 510.527 30.376)"/><path d="m0 0 .033.251.034.64-.005.592-.043 1.085-.009.24-.01.253-.011.26-.016.346-.018.486-.008.296-.012.298-.021.61-.021.587-.012.358-.017.627-.006.311-.017.62-.006.31-.003.299-.003.297-.004.289v.284l-.003.27v.257l.003.256.004.238.003.223.006.209.005.189.01.175.014.288.007.765-.111.941-.251.96-.413.953-.597.921-.78.825-.934.678-.961.447-.696.211-.621.117-.62.054-.608-.004-.585-.061-.563-.109-.535-.155-.512-.191-.483-.234-.46-.253-.428-.287-.403-.311-.287-.255-.114.049-.397.146-.43.141-.45.134-.474.117-.499.103-.522.094-.547.072-.563.051-.579.03-.647.012-1.334-.048-1.354-.139-1.325-.235-1.298-.316-1.263-.399-1.232-.472-1.19-.542-1.153-.603-1.117-.67-1.076-.722-1.034-.772-.994-.822-.956-.865-.915-.907-.872-.945-.83-.983-.793-1.013-.744-1.043-.703-1.074-.664-1.097-.614-1.122-.569-1.137-.523-1.159-.478-1.178-.426-1.193-.376-1.205-.326-1.216-.27-1.224-.215-1.232-.156-1.233-.096-1.242-.032-1.224.02-1.126.062-1.094.107-1.076.146-1.059.19-1.039.23-1.017.274-1.004.318-.971.362-.957.402-.927.446-.904.486-.87.533-.843.57-.816.615-.778.65-.74.69-.711.728-.666.765-.625.798-.587.832-.537.857-.497.892-.447.917-.405.942-.36.965-.306.987-.262 1-.213 1.026-.165 1.04-.118 1.056-.069 1.084-.025 1.124.032 1.12.096 1.098.154 1.076.21 1.046.262 1.017.319.993.361.959.405.93.45.898.485.862.521.83.556.801.582.764.611.729.64.693.658.423.428.016-.025.387-.584.416-.569.442-.545.475-.523.499-.497.525-.469.548-.438.575-.413.596-.38.622-.348.638-.313.657-.279.672-.244.691-.207.701-.172.716-.13.724-.097.732-.054.735-.021.981.027.972.075.958.124.943.173.925.222.909.263.887.316.865.356.843.399.819.44.095.056.922-.735 1.097-.578 1.216-.361 1.059-.102h9.809l.897.078 1.068.287.557.263.313-.167 1.235-.36 1.066-.101h9.806l.903.08 1.079.286 1.019.482.918.671.786.832.239.376.287-.248.637-.48.669-.448.709-.413.742-.375.77-.332.798-.292.828-.248.852-.203.872-.16.901-.112.918-.069.935-.022.589.015.587.039.592.06.592.082.598.103.604.125.607.144.61.165.616.187.617.202.62.228.62.249.619.27.617.296.613.321.609.34.599.372.594.396.584.43.569.461.557.494.009.008.183-.22.521-.562.564-.538.596-.513.635-.48.671-.449.708-.412.741-.375.771-.333.798-.291.827-.248.851-.203.878-.16.897-.112.917-.069.936-.022.588.015.589.038.592.061.593.082.6.103.607.125.606.142.613.164.616.186.617.206.621.228.622.249.62.27.616.296.617.316.608.343.601.369.596.399.586.429.57.461.558.493.54.529.519.575.491.612.458.655.422.701.379.748.321.79.263.833.194.864.117.894.04.902-.027.753-.088.736-.052.247.209.362.347 6.37-.022.863-.06.784-.101.765-.136.754-.184.733-.222.715-.26.694-.301.671-.337.641-.373.614-.405.584-.434.547-.465.519-.483.479-.505.447-.523.413-.536.38-.547.345-.555.313-.568.284-.569.25-.574.228-.578.196-.576.174-.579.149-.574.128-.58.104-.574.083-.577.062-.57.047-.563.024-.593.011-1.004-.027-1.01-.085-.992-.137-.971-.192-.945-.246-.925-.291-.891-.342-.866-.387-.833-.432-.803-.469-.764-.51-.736-.546-.699-.579-.665-.612-.447-.451-.082.123-.433.547-.462.519-.488.479-.502.45-.524.415-.536.375-.55.345-.556.313-.567.287-.567.251-.573.224-.574.196-.579.174-.581.149-.575.128-.58.104-.573.083-.577.062-.571.047-.564.024-.594.011-.783-.02.077.111.35.605.283.608.229.607.181.605.138.605.1.611.055.61.022.64-.042.86-.127.9-.226.899-.335.88-.444.847-.544.79-.639.712-.711.622-.756.527-.799.431-.816.343-.825.266-.836.193-.838.128-.848.075-.858.025-.737-.023-.73-.057-.725-.102-.718-.139-.708-.177-.697-.218-.682-.251-.669-.296-.65-.325-.631-.36-.61-.39-.175-.127-.444.416-.751.554-.795.453-.811.354-.822.272-.825.192-.826.126-.824.073-.836.025-.737-.023-.733-.06-.728-.102-.716-.145-.709-.183-.695-.22-.681-.252-.666-.298-.647-.328-.631-.358-.609-.389-.594-.42-.573-.447-.552-.474-.532-.498-.516-.524-.498-.545-.476-.567-.459-.586-.446-.613-.427-.632-.408-.649-.392-.667-.379-.69-.362-.707-.346-.726L23 4.801l-.317-.76-.299-.782-.288-.795-.271-.818h-.001l-.234-.086-.643-.312-.575-.349-.501-.375-.447-.4-.067-.069-.343.287-.558.416-.585.385-.605.354-.619.316-.643.287-.658.254-.669.214-.683.188-.694.148-.704.115-.712.083-.719.048-.734.018-.965-.024-.959-.073-.945-.116-.937-.165-.917-.214-.9-.253-.882-.3-.859-.342-.837-.383-.815-.422L.627.415Z" style="fill:#7C51A1;fill-opacity:1;fill-rule:evenodd;stroke:none" transform="matrix(1.33333 0 0 -1.33333 175.62 24.421)"/><path d="m0 0-.342-.378-.297-.363-.257-.353-.241-.343-.215-.339-.203-.332-.195-.326-.187-.324-.165-.29-.24-.406-.236-.388-.227-.363-.226-.346-.225-.321-.219-.306-.213-.282-.21-.267-.207-.248-.2-.225-.193-.208-.188-.187-.185-.174-.182-.158-.17-.141-.164-.125-.162-.119-.158-.103-.148-.088-.151-.08-.144-.075-.08-.031 4.488 19.042.064.03.278.111.379.129.478.138.686.172.482.128.527.16.514.189.514.209.508.243.5.274.494.309.478.35.461.392.438.431.414.478.375.514.332.556.283.585.228.602.164.569.145.666.064.82-.044.783-.137.726-.209.646-.242.555-.266.466-.287.425-.334.4-.34.349-.369.313-.375.282-.395.246-.384.211-.395.176-.394.147-.379.118-.366.092-.361.072-.355.061-.35.039-.34.028-.334.014-.441.009-.533-.034-2.809-.381-.283-.055-.174-.025-.172-.035-.178-.028-.189-.029-.184-.025-.189-.024-.197-.024-.2-.021-.197-.023-.207-.016-.209-.015-.209-.011-.211-.008-.215-.007-.228-.001-.276.001-.287.005-.293.002-.3.007-.307.01-.307.011-.318.008-.328.014-.33.017-.336.017-.342.021-.342.022-.355.025-.362.025-.367.026-.375.031-.383.033-.382.033-.395.038-.394.039-.407.037-.404.048-.42.04-.426.047-.427.051-.438.049-.445.054-.449.054-.459.057-.459.057-.469.063-.502.068-1.256.156-3.604.309-.882-.013-.725-.032-.728-.056-.727-.083-.731-.1-.73-.128-.732-.156-.729-.189-.73-.211-.719-.24-.717-.28-.713-.307-.699-.343-.691-.381-.682-.421-.66-.457-.647-.497-.619-.539-.598-.579-.57-.625-.535-.666-.502-.702-.461-.744-.422-.78-.369-.813-.33-.847-.277-.875-.225-.902-.18-.928-.125-.952-.074-.976-.025-.999.015-.727.063-.72.094-.708.136-.695.172-.677.205-.664.248-.643.276-.618.304-.6.34-.573.362-.55.39-.521.414-.497.436-.47.453-.442.469-.41.488-.39.5-.358.512-.335.523-.306.537-.281.541-.258.549-.233.557-.203.56-.18.567-.159.576-.135.576-.108.576-.086.586-.06.582-.037.586-.013.512.011.519.034.512.053.5.076.496.094.494.109.487.135.48.149.477.162.466.187.459.202.454.219.447.235.437.259.121.076-1.757-7.518-.047-.22-.367-.1-.702-.175-.502-.155-.578-.237-.539-.28-.508-.331-.48-.373-.43-.405-.396-.446-.35-.476-.308-.508-.266-.54-.221-.56-.164-.59-.109-.609-.053-.626.006-.64.074-.659.156-.697.239-.691.32-.673.398-.635.463-.593.537-.534.586-.477.625-.409.661-.336.683-.279.699-.213.713-.159.731-.102.736-.047.75-.01.678.035.283.018.246.015.26.019.269.013.274.016.281.012.297.013.297.016.308.012.313.01.324.015.326.009.336.011.338.012.348.01.355.008.346.009.367.007.365.01.37.01.376.003.377.007.381.007.381.002.389.009.39.002.397.004.393.001.394.003.398.002.405.001h.349l7.7-.169.787-.009.89.06.881.131.867.218.838.307.803.397.742.485.662.552.569.595.478.618.305.483.189-.202.557-.539.598-.507.634-.478.666-.447.707-.41.739-.373.765-.331.799-.291.822-.246.852-.203.871-.157.893-.115.918-.066.929-.023.586.016.582.036.59.059.59.086.596.105.601.122.598.144.613.165.61.184.615.206.613.226.613.248.618.272.611.292.611.317.604.347.595.366.594.396.072.056.168-.19.405-.416.427-.388.452-.359.466-.33.485-.305.502-.273.504-.241.521-.217.524-.191.525-.164.537-.14.543-.119.547-.099.551-.079.552-.055.565-.041.566-.024.567-.007.392.004.389.014.387.021.381.035.382.041.381.051.377.056.375.065.375.076.369.08.369.094.366.097.361.107.365.116.356.123.351.132.35.135.349.145.342.152.344.164.123.062.604-.347.63-.308.645-.266.668-.225.676-.182.685-.14.698-.103.705-.06.74-.018.76.028.775.095.752.16.727.216.695.271.31.15.78-.23 1.047-.096h9.781l.902.079 1.07.289 1 .476.905.656.775.813.617.953.428 1.065L73-15.79l.029.803-.082.945-.273 1.034-.461 1.003-.654.941-.68.673.051.23.105.494.311 1.438.045.22.13.603.27 1.245.137.637.136.628.133.634.135.62.133.607.127.59.117.548.141.035.691.253.639.304.568.345.494.371.453.402.461.496.414.548.358.583.295.62.23.64.164.656.098.671.033.668-.029.624-.082.605-.135.593-.188.592-.24.569-.297.559-.355.539-.412.516-.481.486-.256.211.373-.166.864-.252.896-.155.949-.049.961.071.983.233.904.373.803.476.685.548.573.583.468.602.389.599.311.598.254.588.201.58.16.573.121.566.09.561.051.562.017.597-.037.861-.127.897-.224.89-.327.884-.439.841-.541.792-.629.712-.707.626-.764.533-.789.436-.814.345-.824.266-.836.196-.842.132-.846.075-.855.021-.735-.019-.728-.056-.725-.102-.713-.14-.709-.178-.691-.215-.684-.259-.662-.291-.646-.328-.627-.359-.608-.391-.59-.421-.566-.45-.545-.478-.527-.502-.508-.525-.486-.553-.465-.571-.447-.596-.432-.613-.408-.636-.395-.652-.375-.673-.359-.695-.348-.713-.326-.729-.316-.751-.297-.77-.287-.782-.266-.807-.219-.711-.224-.082-.647-.316-.572-.359-.498-.38-.44-.4-.455-.495-.408-.549-.281-.477-.026.027-.513.58-.543.53-.567.48-.586.429-.593.382-.604.341-.613.297-.608.259-.605.225-.604.195-.595.164-.592.14-.584.119-.574.096-.567.083-.554.062-.545.05-.532.037-.521.028-.506.017-.494.008-.5.002-.551-.006-.574-.024-.566-.043-.575-.056-.564-.072-.566-.09-.565-.108-.56-.12-.561-.141-.553-.156-.549-.176-.543-.193-.539-.214-.533-.238-.525-.254-.522-.277-.511-.306-.498-.331-.493-.356-.48-.39-.459-.419-.449-.453-.422-.487-.121-.161-.368.464-.462.512-.485.482-.504.444-.525.409-.535.379-.545.344-.559.31-.564.28-.569.252-.57.225-.576.197-.576.171-.578.148-.577.125-.576.107-.574.08-.576.066-.566.041-.565.029-.594.006-.994-.026-1.008-.084-.982-.138-.967-.19-.939-.243-.912-.297-.889-.337-.857-.388-.829-.43-.795-.469-.759-.511-.731-.544-.693-.576-.658-.608-.623-.638-.588-.661-.551-.686-.52-.709-.478-.726-.447-.746-.411-.767-.376-.778-.004-.004-.746-.052-.79-.164-.734-.269-.652-.334L.871.767.402.382Z" style="fill:#7C51A1;fill-opacity:1;fill-rule:evenodd;stroke:none" transform="matrix(1.33333 0 0 -1.33333 756.63 37.236)"/><path d="m0 0 .062.338.059.332.051.323.049.318.043.314.039.309.039.301.027.298.026.302.017.288.016.291.008.29.005.327-.027.847-.07.867-.123.842-.176.829-.232.802-.284.778-.336.743-.386.712-.436.674-.476.621-.51.579-.549.528-.568.48-.584.433-.592.379-.606.341-.613.297-.605.258-.608.226-.599.194-.6.166-.59.139-.578.119-.578.095-.569.082-.552.065-.547.05-.529.036-.524.028-.508.015-.49.008-.5.004-.549-.006-.576-.027-.568-.038-.571-.057-.568-.074-.564-.09-.563-.107-.564-.12-.559-.14-.551-.158-.549-.174-.544-.197-.538-.212-.535-.237-.525-.255-.518-.279-.513-.306-.5-.329-.491-.357-.476-.389-.467-.418-.443-.453-.424-.485-.117-.161-.369.462-.461.514-.487.479-.5.444-.523.412-.539.379-.549.34-.551.311-.562.281-.571.25-.572.225-.576.197-.576.175-.578.143-.575.127-.58.106-.572.083-.572.065-.571.039-.564.031-.592.006-.777-.021.195.118.578.371.565.406.558.437.551.473.529.519.506.563.489.625.443.682.402.745.334.812.26.87.16.919.057.935-.043.848-.139.851-.252.866-.39.869-.547.841-.701.775-.852.655-.877.454-.617.218-.531.139-.53.085-.533.042-.517-.007-.502-.041-.493-.086-.478-.119-.453-.149-.434-.178-.414-.203-.393-.223-.373-.249-.353-.268-.33-.28-.254-.236-.244-.242-.182-.18-.156-.149-.125-.115-.006-.007-1.529-.202h-.252l-.307.01-.324.009-.344.013-.357.018-.369.017-.389.02-.4.023-.409.023-.422.028-.431.029-.445.032-.44.033-.453.037-.463.033-.463.037-.467.039-.466.04-.473.039-.479.041-.472.041-.483.043-.927.085-.467.044-.455.043-.461.04-.449.041-.442.042-.435.039-.452.044-5.394.448-1.285-.015-1.108-.047-1.082-.073-1.06-.105-1.039-.135-1.014-.168-.996-.198-.977-.229-.947-.267-.926-.301-.902-.332-.879-.367-.855-.408-.825-.446-.798-.48-.766-.52-.736-.565-.7-.604-.662-.642-.617-.68-.582-.713-.533-.752-.486-.785-.432-.813-.385-.842-.334-.869-.277-.886-.231-.904-.17-.921-.123-.938-.076-.942-.023-.952.015-.712.047-.697.084-.693.106-.676.142-.674.176-.66.203-.649.237-.634.261-.618.297-.601.32-.592.352-.57.379-.547.404-.525.434-.51.455-.483.482-.461.5-.436.532-.412.542-.381.565-.353.586-.327.605-.297.618-.27.632-.238.647-.206.66-.177.672-.144.68-.113.689-.079.697-.052.709-.013.569.013.568.044.568.071.563.094.551.117.552.139.547.163.541.182.537.201.537.227.526.244.523.264.033.017-1.16-5.4-.113-.058-.199-.089-.238-.1-.395-.166-.717-.336-.816-.53-.766-.66-.679-.802-.571-.948-.398-1.078-.196-1.161.028-1.069.119-.677.146-.549.2-.531.244-.514.293-.494.338-.468.375-.44.418-.398.449-.37.482-.329.5-.291.524-.247.537-.206.553-.171.564-.132.728-.121 4.342-.145 1.041.002 3.483.099 1.783.069.402.015.553.049.555.09.549.132.544.177.538.224.513.277.487.319.451.359.4.397.272.314.597-.455.674-.445.699-.411.739-.373.769-.331.795-.292.828-.244.846-.203.873-.158.894-.112.911-.07.937-.019.58.013.586.038.584.06.592.083.594.104.599.123.604.144.609.164.61.185.615.206.617.226.613.248.614.27.613.293.609.318.606.34.599.374.586.397.078.058.164-.193.409-.416.425-.389.452-.359.468-.333.483-.303.5-.272.504-.244.517-.215.526-.191.531-.164.535-.141.539-.116.547-.1.553-.078.554-.056.561-.042.57-.021.565-.01.39.005.391.012.387.025.382.031.383.042.383.051.373.058.377.067.371.072.371.082.367.089.368.1.365.109.365.115.356.123.349.128.352.138.347.146.342.152.346.162.121.062.596-.343.631-.31.644-.264.666-.224.678-.186.683-.139.698-.103.703-.059.738-.022.76.033.773.095.756.155.725.219.693.272.664.325.629.377.592.431.547.481.513.531.459.591.413.65.345.711.278.78.181.846.061.851-.039.703-.11.662-.177.65-.26.635-.328.602-.393.557-.449.505-.516.468-.242.171L-.217-1.1l.082.392.073.36z" style="fill:#7C51A1;fill-opacity:1;fill-rule:evenodd;stroke:none" transform="matrix(1.33333 0 0 -1.33333 692.136 42.249)"/><path d="m0 0-.08-.837-.022-.832.01-.537.035-.511.064-.508.087-.502.11-.501.132-.496.159-.484.183-.478.206-.469.231-.457.252-.45.279-.437.296-.42.316-.403.346-.393.356-.374.389-.36.401-.337.413-.313.429-.294.444-.271.451-.247.462-.225.473-.198.482-.18.49-.155.5-.132.489-.1-.028-.104-.179-.778-.157-.784-.136-.781-.114-.789-.094-.795-.073-.798-.052-.794-.031-.805-.013-.83.028-1.141.081-1.143.135-1.135.187-1.112.237-1.1.287-1.077.333-1.057.384-1.035.426-1.011.47-.984.514-.955.554-.926.599-.9.634-.87.678-.833.711-.799.748-.764.782-.726.819-.689.846-.645.884-.61.912-.562.94-.518.972-.468.992-.422 1.022-.373 1.042-.313 1.068-.266 1.081-.21 1.102-.147 1.114-.095 1.116-.025 1.099.017 1.064.066 1.053.107 1.034.154 1.018.189.998.237.98.278.958.319.935.36.909.403.887.44.859.481.83.522.801.562.768.603.736.63.699.676.664.709.625.74.266.357.335-.08.601-.074.484-.019h6.256l.849.061.998.241.954.39.879.539.79.678.254.307.31-.236.669-.442.703-.412.732-.369.765-.335.793-.288.821-.246.848-.203.871-.154.889-.114.913-.067.929-.021.582.014.583.037.584.059.588.082.593.101.599.125.604.144.605.163.609.183.614.201.614.228.615.246.611.267.614.291.611.322.602.34.595.363.59.395.582.426.566.453.551.488.539.526.512.567.487.606.454.645.421.691.378.741.324.778.263.82.199.861.125.883.047.918-.031.768-.096.74-.058.279.177.341.35 6.293-.019.862-.061.775-.099.76-.139.747-.18.727-.222.711-.256.69-.301.663-.332.638-.372.607-.402.582-.434.546-.459.513-.48.479-.501.443-.517.411-.533.374-.544.343-.554.311-.561.282-.566.248-.568.227-.571.197-.574.169-.576.149-.573.125-.573.103-.57.082-.571.066-.567.045-.563.022-.588.012-.992-.03-1.003-.081-.983-.137-.843-.169.204.325.319.62.268.649.212.682.153.71.094.727.03.745-.03.696-.096.695-.153.673-.21.643-.258.607-.297.567-.328.528-.359.491-.377.445-.388.407-.402.376-.413.345-.419.314-.418.291-.423.26-.428.245-.425.22-.427.204-.428.188-.429.168-.427.156-.424.14-.422.125-.423.114-.42.098-.42.087-.411.076-.415.062-.416.049-.41.036-.41.023-.438.01-1.237-.036-1.24-.106-1.216-.171-1.197-.242-1.172-.296-1.147-.361-1.119-.414-1.093-.467-1.06-.518-.728-.394-.003.004-.587.704-.671.643-.75.576-.812.501-.869.417-.915.336-.954.257-.988.181-1.026.108-1.03.032-.628-.011-.583-.028-.572-.05-.568-.065-.559-.078-.544-.095-.532-.109-.527-.12-.516-.128-.501-.142-.488-.148-.485-.155-.467-.161-.456-.169-.443-.17-.437-.178-.422-.182-.408-.183-.39-.183-.382-.184-.368-.184-.353-.185-.342-.18-.328-.177-.032-.02-.147.051-.364.12-.369.118-.359.108-.355.108-.352.1-.349.101-.354.092-.341.085-.343.084-.344.079-.34.075-.337.068-.336.063-.338.061-.33.053-.331.052-.331.044-.332.038-.33.036-.328.03-.325.023-.327.024-.323.016-.324.012-.323.007-.337.002-.674-.009-.692-.03-.69-.054-.692-.07-.686-.092-.685-.113-.684-.137-.68-.157-.674-.184-.671-.205-.662-.235-.657-.257-.647-.285-.639-.312-.628-.344-.618-.379-.602-.412-.584-.442-.563-.478-.545-.516-.516-.555-.488-.586-.458-.628-.419-.662-.38-.699-.332-.725-.287-.755-.236-.782L.132.82Z" style="fill:#7C51A1;fill-opacity:1;fill-rule:evenodd;stroke:none" transform="matrix(1.33333 0 0 -1.33333 .136 19.28)"/><g clip-path="url(#a)" transform="matrix(1.33333 0 0 -1.33333 -180.61 162.382)"><path d="M0 0a.933.933 0 0 0 .029-.102" style="fill:#7C51A1;fill-opacity:1;fill-rule:nonzero;stroke:none" transform="translate(246.845 107.957)"/><path d="M0 0c-1.9 0-3.033-1.55-3.033-3.046 0-.704.215-1.356.428-1.988.197-.583.378-1.118.378-1.634 0-1.145-1.175-2.499-2.169-2.499-.827 0-1.43.254-1.836.781-1.276 1.644-.438 5.414-.151 6.529l2.699 10.214.055.231c.342 1.429.652 2.75.652 4.009-.037 4.324-3.113 7.47-7.306 7.47-1.379 0-4.112-.43-7.201-2.876.064.26.127.526.127.526l.058.459-.236.73c-.223.293-.574.441-1.037.441l-.282.003c-1.306.012-5.264.053-7.346-.807-.928-.378-1.539-1.323-1.422-2.199.055-.41.365-1.383 2.014-1.573.451-.058.58-.172.613-.219.15-.21 0-.927-.063-1.24L-27.907.321c-.244-1.198-.387-1.251-.727-1.377l-.217-.082c-.984-.329-1.453-1.413-1.32-2.224.117-.725.666-1.176 1.432-1.176h6.665c1.48 0 2.351.903 2.531 1.746.182.866-.279 1.661-1.203 2.071-.375.167-.727.637-.615 1.271l1.771 8.436c.785 3.791 3.291 6.244 6.377 6.244 2.457 0 3.51-.95 3.51-3.176l-.36-2.365-2.314-8.881a14.847 14.847 0 0 1-.475-3.661c0-2.554.713-4.902 2.075-6.653 1.539-1.978 3.791-3.024 6.504-3.024 4.312 0 8.238 4.098 8.238 8.599C3.965-1.69 2.262 0 0 0" style="fill:#fff;fill-opacity:1;fill-rule:evenodd;stroke:none" transform="translate(499.694 81.973)"/><path d="M0 0c-1.062 0-2.322.426-2.322 2.46 0 3.445 4.099 3.995 7.715 4.481 0 0 1.869.312 2.39.397-.021-.263-.068-.782-.068-.782C7.338 3.066 3.736 0 0 0m15.334-.338c-.354.284-.834.423-1.428.423-.324 0-.545.092-.695.279-.291.365-.34 1.128-.133 2.048L14.5 8.976c.365 1.558.553 2.933.553 4.082 0 6.957-5.887 7.764-10.315 7.764-4.724 0-9.746-2.16-9.746-6.163 0-1.842 1.164-3.176 2.768-3.176 2.451 0 3.992 1.262 4.34 3.544.277 1.695.517 2.51 2.863 2.51 2.371 0 3.789-1.123 3.789-3.005 0-2.088-.838-3.061-2.977-3.479l-3.691-.455-2.713-.3c-1.359-.221-8.11-1.674-8.11-8.549 0-4.118 2.458-6.206 7.307-6.206 2.92 0 5.955 1.162 7.985 3.025 1.006-1.81 3.08-2.94 5.502-2.94 2.263 0 3.841 1.498 3.841 2.847 0 .473-.197.897-.562 1.187" style="fill:#fff;fill-opacity:1;fill-rule:evenodd;stroke:none" transform="translate(453.117 81.217)"/><path d="M0 0c1.015 2.531 3.503 3.689 5.429 3.313C6.987 3.011 7.882 1.898 7.882.258L7.863 0Zm4.766 6.73C-3.552 6.73-8.52-.556-8.52-7.592c0-5.053 2.752-10.957 10.507-10.957 3.952 0 11.666 2.989 11.703 8.468 0 2.029-1.299 3.559-3.026 3.559-1.616 0-3.539-.82-3.539-4.729 0-2.583-2.116-3.936-4.207-3.936-1.254 0-2.284.401-3.058 1.183-1.09 1.102-1.688 2.966-1.688 5.254 0 1.341.196 2.779.583 4.502h15.109l.139 1.25.115 1.404c0 6.148-5.04 8.324-9.352 8.324" style="fill:#fff;fill-opacity:1;fill-rule:evenodd;stroke:none" transform="translate(429.353 95.31)"/><path d="M0 0c3.236 0 5.172-2.164 5.172-5.784 0-3.236-2.933-6.837-7.14-6.837a17.88 17.88 0 0 0-3.665.352s-.696.087-1.046.135C-6.608-11.81-4.109-.252-4.056 0zm8.25 1.747c2.837 1.4 5.655 4.612 5.655 8.24 0 7.674-6.63 11.165-12.786 11.165l-1.523-.026-4.426-.014-7.538.167c-6.62 0-17.722-1.574-17.722-12.132 0-4.586 3.782-8.768 7.933-8.768 2.839 0 6.775 1.833 6.775 5.277 0 1.401-.689 2.667-1.718 3.158-.518.243-1.584.499-2.864-.543l-.998-1.141c-.541-.743-.964-1.326-1.734-1.326-1.825 0-3.242 2.183-3.242 4.055 0 6.537 7.681 7.513 12.259 7.513 1.891 0 3.951-.154 4.866-1.291.657-.813.773-2.146.352-4.074l-4.854-22.544c-.416-1.925-1.721-2.251-4.488-2.251-.713 0-1.103-.365-1.307-.673-.212-.32-.327-.751-.327-1.238 0-.883.376-2.125 1.208-2.125l2.687.117 5.334.18 9.355-.297c6.214 0 13.133 4.448 13.133 10.829 0 2.162-.498 4.988-4.03 7.742m-9.736 10.136c.831 4.048 2.115 4.858 3.914 4.858 2.72 0 4.474-2.32 4.474-5.914 0-3.239-2.994-6.663-5.827-6.663h-4.181c.082.374 1.62 7.719 1.62 7.719" style="fill:#fff;fill-opacity:1;fill-rule:evenodd;stroke:none" transform="translate(407.15 93.962)"/><path d="M0 0c-4.227 0-7.543 3.458-7.543 7.876 0 2.519 1.248 4.703 3.32 5.902 2.194-5.2 5.766-9.922 8.446-12.423C2.486.453 1.127 0 0 0m3.771 31.115c1.653 0 2.391-1.337 2.391-2.662 0-2.199-2.982-4.664-5.818-5.778l-.157 1.788c0 3.071.94 6.652 3.584 6.652M20.078 5.966c-.707 0-1.357-.32-1.939-.957-.426-.482-.569-1.275-.743-2.188-.16-.861-.339-1.826-.728-2.264-.231-.255-.725-.678-1.469-.678-.717 0-2.191.35-4.086 2.532 4.885 5.989 5.928 9.974 5.928 12.269 0 2.893-1.256 4.762-3.189 4.762-2.125 0-3.725-1.469-3.725-3.42 0-.844.201-1.583.4-2.298.203-.754.411-1.518.411-2.448 0-1.355-.338-3.918-2.42-6.07-2.987 2.923-5.969 9.356-6.87 12.315 3.788 2.28 8.733 5.827 8.733 10.509 0 3.903-3.36 6.235-6.61 6.235-6.07 0-9.3-7.497-9.3-12.91 0-.014.093-.916.121-1.163-4.25-2.629-9.084-6.431-9.084-12.609 0-7.022 6.439-11.74 12.457-11.74 3.338 0 6.65.99 9.599 2.846 2.456-1.685 4.883-2.547 7.209-2.547 2.959 0 8.758 2.876 8.758 6.358a3.462 3.462 0 0 1-3.453 3.466" style="fill:#fff;fill-opacity:1;fill-rule:evenodd;stroke:none" transform="translate(533.362 80.846)"/><path d="M0 0c-5.254 0-9.385-4.469-11.621-12.579l-.531-1.915h-.774c-1.036 0-1.652-.396-1.987-.729a2.252 2.252 0 0 1-.676-1.636c0-1.085.756-2.242 2.164-2.242h.286c-.086-.388-2.791-13.077-2.791-13.077-.324-1.47-.694-1.909-2.874-2.449-.829-.194-1.387-.884-1.387-1.708l.01-.217c.096-.795.735-1.646 1.913-1.646h9.404c.844 0 1.493.569 1.573 1.387l.01.164c0 .702-.484 1.62-1.847 1.896-.484.107-.735.283-.735.944l.128 1 2.95 13.706h1.561c1.032 0 1.648.384 1.983.707.437.418.679.993.679 1.614 0 1.108-.796 2.286-2.277 2.286h-.984l.774 3.786c.986 4.949 2.641 7.62 3.695 7.62.108-.073.394-.837.5-1.126.484-1.3 1.215-3.263 3.415-3.263 1.626 0 2.503 1.813 2.503 3.525C5.064-1.404 3.269 0 0 0" style="fill:#fff;fill-opacity:1;fill-rule:evenodd;stroke:none" transform="translate(319.683 115.543)"/><path d="M0 0c-5.183 0-9.515-4.58-11.897-12.565 0-.002-.47-1.616-.564-1.929h-.74c-1.047 0-1.671-.394-2.012-.726a2.25 2.25 0 0 1-.684-1.639c0-1.085.768-2.242 2.19-2.242h.292l-2.787-13.077c-.329-1.463-.704-1.904-2.913-2.449-.991-.241-1.348-1.031-1.348-1.686l.014-.224a1.884 1.884 0 0 1 1.907-1.661h9.403c.825 0 1.457.555 1.536 1.353l.006.157c0 .771-.581 1.674-1.882 1.937-.296.069-.488.181-.591.348l-.127.573.145 1.005c0 .004 2.711 12.425 2.992 13.724h1.524c1.038 0 1.658.389 1.998.716.44.423.683.999.683 1.624 0 1.1-.791 2.267-2.257 2.267h-1.024l.809 3.781c1.128 5.239 2.708 7.625 3.698 7.625.106-.075.381-.834.484-1.124.473-1.299 1.184-3.265 3.383-3.265 1.734 0 2.514 2.059 2.514 3.525C4.752-1.331 3.154 0 0 0" style="fill:#fff;fill-opacity:1;fill-rule:evenodd;stroke:none" transform="translate(305.017 115.543)"/><path d="M0 0c-1.39 0-2.684-.699-3.384-1.82-.567-.917-1.001-2.499.159-4.85l.367-1.169c0-3.091-4.256-6.866-9.221-6.866-6.312 0-8.559 6.274-8.559 12.147 0 8.269 5.286 19.796 13.901 19.796 3.66 0 5.752-2.382 6.398-7.285.237-1.844 1.401-2.755 2.377-2.677.872.072 1.778.885 1.708 2.946l-.041 1.008c-.101 2.499-.286 7.083-.154 9.2.066 1.02-.344 1.792-1.098 2.062-.835.303-1.851-.128-2.528-1.073-.694-.921-1.333-1.39-1.901-1.39-.365 0-.733.191-1.245.458-.963.503-2.269 1.185-4.678 1.185-11.295 0-20.391-12.839-20.391-23.472 0-10.095 6.043-16.618 15.398-16.618 9.492 0 16.363 8.591 16.363 14.381C3.471-1.622 2.078 0 0 0" style="fill:#fff;fill-opacity:1;fill-rule:evenodd;stroke:none" transform="translate(258.916 94.626)"/><path d="M0 0c-3.57 0-3.849 5.285-3.849 6.907 0 4.234 2.427 12.146 7.06 12.146 2.832 0 3.427-3.115 3.427-5.723C6.638 9.537 4.663 0 0 0m3.76 22.182c-8.01 0-14.045-6.31-14.045-14.683 0-6.306 3.783-10.713 9.201-10.713 8.029 0 14.083 6.567 14.083 15.274 0 6.148-3.628 10.122-9.239 10.122" style="fill:#fff;fill-opacity:1;fill-rule:evenodd;stroke:none" transform="translate(273.853 79.88)"/><path d="M0 0c1.556-.301 2.444-1.411 2.444-3.042l-.022-.284h-7.903C-4.455-.774-1.939.385 0 0m8.553-7.59.152 2.67c0 6.162-4.817 8.356-9.324 8.356C-8.992 3.436-14-3.881-14-10.951c0-5.078 2.767-11.009 10.556-11.009 3.992 0 11.764 3.008 11.764 8.515 0 2.033-1.298 3.57-3.016 3.57-1.021 0-1.894-.373-2.526-1.078-.944-1.057-1.146-2.624-1.021-3.741.091-.811-.073-1.426-.539-2.063-.761-1.075-2.28-1.821-3.692-1.821-1.258 0-2.29.398-3.07 1.184-1.096 1.106-1.699 2.982-1.699 5.284 0 1.497.186 2.976.525 4.52z" style="fill:#fff;fill-opacity:1;fill-rule:evenodd;stroke:none" transform="translate(329.32 98.627)"/><path d="M0 0c1.016 2.543 3.517 3.708 5.45 3.333C7.018 3.029 7.918 1.908 7.918.262L7.898 0Zm14.035-4.264.148 2.67c0 6.162-4.814 8.356-9.319 8.356C-3.541 6.762-8.56-.555-8.56-7.625c0-5.078 2.763-11.009 10.557-11.009 4.005 0 11.798 3.008 11.798 8.515 0 2.033-1.296 3.57-3.014 3.57-1.029 0-1.907-.376-2.548-1.088-.954-1.066-1.164-2.627-1.043-3.731.092-.814-.066-1.429-.535-2.063-.763-1.075-2.279-1.82-3.689-1.82-4.308 0-4.774 4.622-4.774 6.611 0 1.244.195 2.722.558 4.376z" style="fill:#fff;fill-opacity:1;fill-rule:evenodd;stroke:none" transform="translate(347.997 95.3)"/><path d="M0 0c-.34-3.472-3.926-6.517-7.686-6.517-1.564 0-2.357.812-2.357 2.423 0 3.427 4.08 3.988 7.676 4.489.004 0 1.91.332 2.447.421L0 0m6.236-6.473c-.328 0-.554.092-.709.286-.306.374-.365 1.156-.164 2.093l1.469 6.512c.26 1.248.555 2.844.555 4.136 0 6.924-5.914 7.723-10.366 7.723-4.707 0-9.709-2.161-9.709-6.162 0-1.844 1.167-3.182 2.762-3.182 2.446 0 3.99 1.262 4.344 3.547.246 1.729.473 2.555 2.875 2.555 1.826 0 3.783-.8 3.783-3.052 0-2.07-.81-3.019-2.988-3.484l-3.41-.408-2.996-.344c-3.745-.554-8.112-3.122-8.112-8.559 0-4.117 2.448-6.205 7.282-6.205 2.953 0 5.988 1.163 7.992 3.025 1.039-1.809 3.064-2.901 5.508-2.901 2.275 0 3.865 1.493 3.865 2.834 0 .473-.199.888-.563 1.173-.351.275-.83.413-1.418.413" style="fill:#fff;fill-opacity:1;fill-rule:evenodd;stroke:none" transform="translate(750.015 87.538)"/><path d="M0 0c-5.23 0-9.34-4.465-11.574-12.571 0-.004-.416-1.552-.5-1.868h-.766c-1.049 0-1.67-.4-2.012-.734a2.314 2.314 0 0 1-.677-1.654c0-1.084.752-2.236 2.146-2.236h.324c-.082-.391-2.806-12.991-2.806-12.991-.287-1.421-.574-1.926-2.865-2.476-1.016-.24-1.377-1.052-1.377-1.678l.011-.201a1.862 1.862 0 0 1 1.891-1.637h9.375c.828 0 1.482.572 1.566 1.366l.004.157c0 .689-.478 1.594-1.836 1.866-.55.125-.736.357-.736.922l.127 1.008s2.893 13.406 2.943 13.664h1.557c1.027 0 1.646.386 1.986.712.44.426.678 1.005.678 1.63 0 1.105-.799 2.282-2.279 2.282h-.953l.742 3.78c1.013 4.901 2.654 7.547 3.679 7.547.125-.069.405-.819.526-1.141.508-1.368 1.203-3.241 3.408-3.241 1.699 0 2.461 2.057 2.461 3.515C5.043-1.411 3.252 0 0 0" style="fill:#fff;fill-opacity:1;fill-rule:evenodd;stroke:none" transform="translate(778.655 115.285)"/><path d="M0 0h-7.867C-6.854 2.523-4.34 3.667-2.4 3.281-.859 2.974.021 1.879.021.281zm-3.07 6.691c-8.321 0-13.295-7.288-13.295-14.336 0-5.054 2.756-10.957 10.521-10.957 3.965 0 11.678 2.994 11.678 8.48 0 2.026-1.291 3.557-3.002 3.557-1.635 0-3.582-.814-3.582-4.699 0-2.61-2.117-3.976-4.205-3.976-4.289 0-4.754 4.611-4.754 6.591 0 1.182.201 2.62.592 4.357H6.047l.07.727.137 1.932c0 6.14-4.811 8.324-9.324 8.324" style="fill:#fff;fill-opacity:1;fill-rule:evenodd;stroke:none" transform="translate(726.388 95.123)"/><path d="M0 0c-.975 0-1.654-1.072-2.576-2.714-2.926-5.092-5.869-7.265-9.838-7.265-2.459 0-3.746.519-3.746 1.03l.279 1.54.129.561 5.207 22.094c.297 1.353.943 2.754 5.137 3.71 1.957.478 3.107 1.38 3.42 2.681.17.608-.055 1.033-.203 1.235-.379.496-1.086.744-2.163.744l-.195-.014-2.529-.343c-1.004-.19-2.371-.405-3.955-.405-3.291 0-7.44.344-12.678 1.049l-1.146.144-3.289.284c-6.206 0-12.834-2.962-12.834-11.261 0-5.262 4.449-8.1 8.632-8.1 3.418 0 7.241 2.419 7.241 5.658 0 2.482-1.231 3.85-3.459 3.85-1.286 0-3.2-1.026-3.2-3.85 0-.609-.789-1.203-1.588-1.203-1.984 0-3.478 1.696-3.478 3.937 0 4.793 2.846 6.923 9.228 6.923 1.471 0 4.069-.435 6.629-1.111 2.821-.717 3.211-1.862 3.211-2.99 0-.621-.136-1.438-.408-2.498l-4.631-19.839c-.566-2.399-.699-2.966-4.336-3.844-1.029-.259-1.705-1.265-1.541-2.287.186-1.123 1.391-2.241 4.205-2.025 2.69.184 6.895.296 11.248.296l7.727-.171c3.271-.138 4.004 1.55 4.434 3.142l.291 1.086c.611 2.297 1.097 4.113 2.154 6.71.394 1.037.377 1.943-.051 2.561C1.027-.243.551 0 0 0" style="fill:#fff;fill-opacity:1;fill-rule:evenodd;stroke:none" transform="translate(707.355 91.251)"/><path d="M0 0c-.689.283-1.535.04-2.211-.644C-3.479-1.898-3.91-2.245-4.936-2.5l-2.396-.32c-3.201 0-9.381.578-13.893 1.002l-5.148.43c-10.875 0-17.109-4.501-17.109-12.349 0-5.351 3.855-9.235 9.164-9.235 3.601 0 9.05 3.097 9.05 7.761 0 1.802-1.453 3.722-3.615 3.722-1.629 0-3.574-.775-3.574-4.477 0-2.545-.404-2.884-2.014-2.884-3.142 0-4.672 1.797-4.672 5.491 0 5.249 4.879 7.64 9.413 7.64 2.978 0 5.763-.81 7.259-1.243l.76-.213c1.762-.43 2.377-1.404 1.988-3.149l-4.775-22.222c-.387-1.804-1.734-2.484-3.457-3.184-.977-.394-1.514-1.148-1.416-1.973.098-.747.771-1.623 2.377-1.84l3.959-.135.9.002 3.401.1 1.781.069c1.57 0 2.006.717 2.127 1.148.263.949-.561 2.164-2.098 3.094-.555.332-.752 1.214-.529 2.346l4.783 22.886c.129.648.332.861 2.266.904C-7.457-9.05 1.062-6.46 1.062-1.955 1.062-.989.674-.275 0 0" style="fill:#fff;fill-opacity:1;fill-rule:evenodd;stroke:none" transform="translate(615.57 116.793)"/><path d="M0 0c-1.562 0-2.352.814-2.352 2.422 0 3.427 4.073 3.989 7.674 4.489l2.44.423-.08-.819C7.314 2.675 3.34 0 0 0m15.324-.372c-.349.278-.824.418-1.406.418-.328 0-.553.094-.711.285-.305.378-.361 1.139-.158 2.091l1.465 6.514c.382 1.835.556 3.109.556 4.135 0 6.921-5.918 7.717-10.367 7.717-4.703 0-9.709-2.16-9.709-6.159 0-1.844 1.168-3.182 2.776-3.182 2.402 0 3.982 1.294 4.335 3.547.25 1.728.475 2.555 2.872 2.555 1.826 0 3.779-.8 3.779-3.052 0-2.073-.807-3.019-2.981-3.483l-3.42-.409-2.99-.344c-3.744-.554-8.107-3.122-8.107-8.555 0-4.119 2.451-6.202 7.283-6.202 2.959 0 5.994 1.163 7.988 3.023 1.037-1.812 3.063-2.901 5.498-2.901 2.27 0 3.854 1.494 3.854 2.832 0 .47-.197.885-.557 1.17" style="fill:#fff;fill-opacity:1;fill-rule:evenodd;stroke:none" transform="translate(635.374 81.023)"/><path d="M0 0c1.023 2.523 3.531 3.664 5.469 3.278 1.541-.304 2.42-1.399 2.42-3.001L7.867 0Zm4.803 6.688c-8.319 0-13.289-7.285-13.289-14.329 0-5.056 2.752-10.955 10.513-10.955 3.959 0 11.67 2.992 11.67 8.478 0 2.027-1.291 3.553-3 3.553-1.631 0-3.58-.813-3.58-4.695 0-2.61-2.113-3.973-4.203-3.973-4.295 0-4.756 4.607-4.756 6.585 0 1.173.203 2.607.592 4.359h15.168l.08.847.123 1.809c0 6.14-4.812 8.321-9.318 8.321" style="fill:#fff;fill-opacity:1;fill-rule:evenodd;stroke:none" transform="translate(611.57 95.123)"/><path d="M0 0c1.014 2.536 3.513 3.687 5.443 3.306C6.982 3.003 7.867 1.902 7.867.287L7.847 0Zm13.932-4.234.148 2.653c0 6.116-4.778 8.293-9.25 8.293-8.318 0-13.288-7.263-13.288-14.28 0-5.042 2.744-10.93 10.481-10.93 3.953 0 11.668 2.984 11.716 8.446 0 1.992-1.332 3.551-3.029 3.551-1.006 0-1.866-.372-2.496-1.074-.947-1.058-1.154-2.609-1.03-3.709.09-.809-.072-1.419-.538-2.051-.753-1.063-2.258-1.806-3.661-1.806-1.248 0-2.276.396-3.047 1.182-1.091 1.097-1.688 2.954-1.688 5.232 0 1.495.185 2.96.521 4.493z" style="fill:#fff;fill-opacity:1;fill-rule:evenodd;stroke:none" transform="translate(201.567 95.3)"/><path d="M0 0c-.935 0-2.422.19-3.642.437 1.829.959 3.716 1.534 5.373 1.534 1.212 0 1.779-.429 1.779-.72C3.51.816 2.48 0 0 0m21.594 5.618c-10.719 0-19.096-9.776-21.879-19.48-3.251.254-5.99-.458-7.716-2.011-1.546-1.389-2.329-3.378-2.329-5.919 0-2.993 1.884-4.559 3.745-4.559 1.397 0 2.81.933 2.81 2.71 0 .981-.574 1.731-1.128 2.456l-.794 1.245c-.135.361-.012.801.334 1.204.599.698 2.062 1.382 4.224 1.108l-2.257-9.517c-.156-.671-.811-.971-1.575-1.319-.799-.361-1.784-.81-1.784-1.883 0-1.951 1.785-1.951 2.373-1.951h7.454c.999 0 1.801 1.135 1.801 2.076 0 1.257-.788 1.606-1.261 1.81-.371.167-.577.259-.577.782l.096.763s1.126 5.315 1.449 6.853c1.109-1.498 1.731-3.432 1.731-5.846 0-6.37-3.899-10.174-10.422-10.174-7.498 0-11.425 7.419-11.425 14.746 0 7.148 2.699 13.3 8.011 18.292l.204-.073c1.65-.308 3.522-.665 5.593-.665 5.642 0 9.134 3.17 9.134 6.103 0 1.847-1.486 4.006-5.675 4.006-4.672 0-9.107-2.626-10.801-3.756-3.92 1.514-6.7 2.122-9.448 2.122-5.969 0-11.986-2.745-11.986-8.873 0-1.599.605-3.081 1.71-4.164a5.937 5.937 0 0 1 4.249-1.685c2.717.099 5.538 1.869 5.674 5.069.021.825-.196 1.474-.649 1.94-.482.496-1.191.745-2.114.745-1.92 0-2.546-1.44-2.958-2.395-.383-.876-.569-1.21-1.036-1.21-1.089 0-1.818.972-1.818 2.413 0 2.319 3.374 3.755 6.5 3.755 2.21 0 4.312-.838 6.974-1.903l.082-.031c-5.962-5.905-9.005-12.625-9.005-19.987 0-10.137 7.701-18.391 17.169-18.391 9.679 0 16.44 6.167 16.44 15 0 3.903-1.962 7.933-4.67 9.687.778 2.437 2.371 3.584 5.025 3.584 1.486-.024 2.497-.409 3.09-1.181.83-1.082.883-2.933.162-5.822l-2.653-10.786c-.21-.866-.346-1.747.099-2.314.258-.324.657-.49 1.185-.49h5.996c.875 0 1.613.541 1.836 1.339.263.953-.249 1.924-1.373 2.595-.42.256-.769.604-.414 2.067l1.767 7.298c.861 3.629.522 6.447-1.008 8.386-1.5 1.892-4.062 2.853-7.614 2.853-.852 0-2.463-.324-3.762-.742C10.36-3.183 14.817 2.1 19.712 2.1c1.547 0 2.507-.764 3.2-2.547.748-1.917 2.189-2.374 3.288-2.166 1.28.239 2.574 1.496 2.574 3.433 0 3.196-4.601 4.798-7.18 4.798" style="fill:#fff;fill-opacity:1;fill-rule:evenodd;stroke:none" transform="translate(170.504 109.772)"/></g></svg>